# xmcd
#
# Track frame offsets:
# 150
# 20375
# 38476
# 58993
# 80470
# 99347
# 122636
# 148253
# 169830
# 193279
# 217900
# 239741
# 260830
# 286903
#
# Disc length: 4100 seconds
#
#
# Revision: 0
# Processed by: cddbd v1.5.2PL0 Copyright (c) Steve Scherf et al.
# Submitted via: FreeRIP 2.951 
#
DISCID=d110020e
DTITLE=Christcentric - The Mind Of Christ
DYEAR=1900
DGENRE=Christian Rap
TTITLE0=No Excuse
TTITLE1=Totally Depraved
TTITLE2=Once Was Lost
TTITLE3=A Way That Seemeth Right
TTITLE4=The Answer
TTITLE5=Salvation
TTITLE6=The Mind Of Christ
TTITLE7=Resurrection
TTITLE8=Shout 4 Joy
TTITLE9=If U In Christ
TTITLE10=The Fight
TTITLE11=The Race
TTITLE12=One Accord
TTITLE13=The Benediction
EXTD=
EXTT0=
EXTT1=
EXTT2=
EXTT3=
EXTT4=
EXTT5=
EXTT6=
EXTT7=
EXTT8=
EXTT9=
EXTT10=
EXTT11=
EXTT12=
EXTT13=
PLAYORDER=
